<svg width="20" height="20" viewBox="0 0 20 20" fill="none" xmlns="http://www.w3.org/2000/svg">
<path d="M14.8 17C14.8 15.3498 14.1257 13.7671 12.9255 12.6002C11.7253 11.4333 10.0974 10.7778 8.4 10.7778M8.4 10.7778C6.70261 10.7778 5.07475 11.4333 3.87452 12.6002C2.67428 13.7671 2 15.3498 2 17M8.4 10.7778C10.6091 10.7778 12.4 9.03666 12.4 6.88889C12.4 4.74111 10.6091 3 8.4 3C6.19086 3 4.4 4.74111 4.4 6.88889C4.4 9.03666 6.19086 10.7778 8.4 10.7778ZM18 16.2222C18 13.6011 16.4 11.1667 14.8 10C15.3259 9.61638 15.7465 9.11262 16.0245 8.53332C16.3024 7.95402 16.4292 7.31703 16.3936 6.67873C16.358 6.04044 16.1611 5.42051 15.8204 4.87382C15.4796 4.32713 15.0055 3.87054 14.44 3.54444" stroke="currentColor" stroke-width="1.66667" stroke-linecap="round" stroke-linejoin="round"/>
</svg>
