<svg width="20" height="20" viewBox="0 0 20 20" fill="none" xmlns="http://www.w3.org/2000/svg">
<path d="M12.4993 1.6665H7.49935C7.03911 1.6665 6.66602 2.0396 6.66602 2.49984V4.1665C6.66602 4.62674 7.03911 4.99984 7.49935 4.99984H12.4993C12.9596 4.99984 13.3327 4.62674 13.3327 4.1665V2.49984C13.3327 2.0396 12.9596 1.6665 12.4993 1.6665Z" stroke="currentColor" stroke-width="2" stroke-linecap="round" stroke-linejoin="round"/>
<path d="M6.66732 3.3335H5.00065C4.55862 3.3335 4.1347 3.50909 3.82214 3.82165C3.50958 4.13421 3.33398 4.55814 3.33398 5.00016V16.6668C3.33398 17.1089 3.50958 17.5328 3.82214 17.8453C4.1347 18.1579 4.55862 18.3335 5.00065 18.3335H15.0007C15.4427 18.3335 15.8666 18.1579 16.1792 17.8453C16.4917 17.5328 16.6673 17.1089 16.6673 16.6668V16.2502" stroke="currentColor" stroke-width="2" stroke-linecap="round" stroke-linejoin="round"/>
<path d="M13.334 3.3335H15.0007C15.2929 3.3338 15.58 3.41095 15.833 3.55721C16.0861 3.70348 16.2962 3.91371 16.4423 4.16683" stroke="currentColor" stroke-width="2" stroke-linecap="round" stroke-linejoin="round"/>
<path d="M15.3507 8.00819C15.5132 7.84568 15.7061 7.71677 15.9184 7.62882C16.1308 7.54087 16.3583 7.49561 16.5882 7.49561C16.818 7.49561 17.0455 7.54087 17.2579 7.62882C17.4702 7.71677 17.6631 7.84568 17.8257 8.00819C17.9882 8.17071 18.1171 8.36363 18.205 8.57596C18.293 8.78829 18.3382 9.01587 18.3382 9.24569C18.3382 9.47552 18.293 9.70309 18.205 9.91542C18.1171 10.1278 17.9882 10.3207 17.8257 10.4832L14.1257 14.1665L10.834 14.9999L11.659 11.7082L15.3507 8.00819Z" stroke="currentColor" stroke-width="2" stroke-linecap="round" stroke-linejoin="round"/>
<path d="M6.66602 15H7.49935" stroke="currentColor" stroke-width="2" stroke-linecap="round" stroke-linejoin="round"/>
</svg>
